<svg width="20" height="20" viewBox="0 0 20 20" fill="none" xmlns="http://www.w3.org/2000/svg">
<mask id="mask0_1_333" style="mask-type:alpha" maskUnits="userSpaceOnUse" x="0" y="0" width="20" height="20">
<rect width="20" height="20" fill="#D9D9D9"/>
</mask>
<g mask="url(#mask0_1_333)">
<path d="M2 20V16.8334H18V20H2ZM4.41669 14.4167V11.9937L10.9455 5.48085L13.3525 7.88785L6.83973 14.4167H4.41669ZM5.5 13.3334H6.375L11.8045 7.88785L10.9455 7.02887L5.5 12.4584V13.3334ZM14.3189 6.87343L11.9119 4.48246L12.6603 3.73408C12.8547 3.51719 13.0881 3.41089 13.3606 3.41516C13.633 3.41944 13.8665 3.52575 14.0609 3.73408L15.0512 4.72441C15.2457 4.91886 15.3421 5.15016 15.3405 5.41833C15.3389 5.6865 15.2478 5.92207 15.0673 6.12506L14.3189 6.87343Z" fill="#1C1B1F"/>
</g>
</svg>
