<svg width="130" height="24" viewBox="0 0 130 24" fill="none" xmlns="http://www.w3.org/2000/svg">
<g id="Logo">
<path id="Vector" fill-rule="evenodd" clip-rule="evenodd" d="M115.914 22.9456V20.5701C115.975 20.6109 116.078 20.6309 116.177 20.65H119.935C121.357 20.4885 122.108 19.839 122.189 18.7016L126.169 4.99365C126.536 3.77549 126.333 3.06439 125.216 3.00361C125.216 3.00361 120.565 2.92199 120.605 2.9628L115.914 18.8232V7.14604L117.621 0.931959L128.201 0.891154C129.561 1.05439 130.149 1.70384 129.968 2.82041L125.216 20.4677C124.87 22.0105 123.915 22.8432 122.372 22.9456H115.914ZM115.914 1.76461L116.177 0.850342H115.914V1.76461ZM115.914 0.850342V1.76461L115.466 3.18595H113.862V0.850342H115.914ZM115.914 7.14604V18.8232L115.731 19.4318C115.568 19.8998 115.568 20.3869 115.914 20.5701V22.9456H113.863V14.5583L115.914 7.14604ZM113.862 0.850342V3.18595L109.822 3.14513C109.071 3.22675 108.543 3.61225 108.279 4.30252L106.939 9.27761C106.674 10.0087 106.797 10.5574 107.345 10.9229H111.996L111.366 12.8322H106.858C106.29 12.913 105.923 13.2994 105.701 13.9696L104.34 19.3511C104.137 20.4077 104.523 20.4894 104.948 20.8132H110.797L110.167 23.0689H102.43C102.289 23.0281 102.166 23.0082 102.045 22.9674V15.5542L105.315 2.74053C105.883 1.27839 106.939 0.831244 108.238 0.89289L113.862 0.850342ZM113.863 14.5583L111.528 22.9456H113.863V14.5583ZM102.045 4.64808L102.898 3.55148C103.932 2.13015 103.527 0.99274 102.045 0.951932V4.64808ZM102.045 0.951932V4.64808L90.7342 19.0463C90.1663 19.5942 90.2054 20.5284 90.9973 20.5484H98.6943L98.0449 23.0663H87.8499V18.1928L98.6336 4.01773C99.1606 3.32747 98.6943 2.92113 97.9025 2.92113H91.5877L91.6893 0.951064H101.984L102.045 0.951932ZM102.045 15.5542L100.764 20.5901C100.42 21.7266 100.642 22.6201 102.045 22.9656V15.5542ZM87.849 9.15692L90.0839 0.9528H87.849V9.15692ZM87.849 0.9528V9.15692L84.0321 23.0863H80.4575L86.5301 0.951932L87.849 0.9528ZM87.849 18.1937L86.0222 20.6101C85.2694 21.7258 85.5542 22.5584 86.8748 23.0672H87.8481V18.1937H87.849ZM52.9608 23.1488V22.8432L64.618 0.99187L68.2924 0.931092L69.6339 23.0056L66.5256 22.9648L65.9369 14.7189C65.9777 14.1711 65.7129 13.8663 65.1858 13.8055L60.4406 13.7188L61.4421 11.8155H65.1858C65.4099 11.7547 66.2217 11.8355 65.8761 10.6781L65.4507 5.78376L64.6588 5.70214L55.4796 23.1471H52.9608V23.1488ZM52.9608 20.6101L58.3232 0.951932H54.7685L52.9608 7.57236V20.6101ZM52.9608 1.37911L53.1032 0.85121H52.9608V1.37911ZM75.7664 0.951932H79.3002L74.3858 19.0264C74.1419 19.9797 74.3659 20.4885 75.0553 20.5085L80.0512 20.6309L79.3002 23.0472L72.2725 23.0863C70.8312 22.7425 70.3441 21.5651 70.4457 20.4477L75.7664 0.951932ZM52.9608 0.85121V1.37911L52.413 3.18595H50.9109V0.850342L52.9608 0.85121ZM52.9608 7.57236V20.6101L52.2706 23.0863H50.9109V15.0454L52.9608 7.57236ZM52.9608 22.8432L52.7976 23.1497L52.9608 23.1488V22.8432ZM50.9109 0.850342V3.18595L46.7676 3.14513C46.0157 3.22675 45.5086 3.61225 45.2247 4.30252C42.4827 14.5774 44.3104 7.49074 41.2846 19.3502C41.0814 20.4069 41.4669 20.4885 41.914 20.8124H47.7418L47.1123 23.0681H39.5177V13.5017L42.2596 2.73879C42.8283 1.27666 43.905 0.829508 45.1839 0.891154L50.9109 0.850342ZM50.9109 15.0454L48.7168 23.0863H50.9109V15.0454ZM39.5177 3.18595H40.7567L41.4669 0.850342H39.5177V3.18595ZM39.5177 0.850342V3.18595L35.0904 3.14513C34.3394 3.22675 33.8315 3.61225 33.5476 4.30252L32.227 9.27761C31.943 10.0087 32.0846 10.5574 32.6333 10.9229H37.2637L36.655 12.8322H32.1462C31.5775 12.913 31.1911 13.2994 30.9888 13.9696L29.6283 19.3502C29.4051 20.4069 29.7915 20.4885 30.2378 20.8124H36.0664L35.4568 23.0681H27.7198C27.5775 23.0273 27.4359 23.0073 27.3135 22.9665V15.5942L30.5833 2.73966C31.1729 1.27753 32.2287 0.830376 33.5076 0.892022L39.5177 0.850342ZM39.5177 13.5017L37.71 20.5901C37.3444 21.8282 37.6292 22.7624 39.3952 23.0681H39.5177V13.5017ZM27.3126 9.05447L28.6932 3.4907C28.8755 2.0685 28.4292 1.23585 27.3126 0.992737V9.05447ZM16.4482 0.931959L15.8803 3.14513H14.235V0.951932L16.4482 0.931959ZM27.3126 0.992737C27.1123 0.950229 26.9079 0.929847 26.7031 0.931959L18.0319 0.891154L14.2341 14.9239V23.0672H15.0269L20.4283 3.18595L24.0029 3.22675C24.7539 3.36914 25.1602 3.79546 25.201 4.50569L23.7389 10.5166C23.5566 11.4917 22.9063 12.1411 21.7888 12.5066L17.6654 13.3554L17.0572 15.5942L24.4899 14.1919C25.6473 13.8663 26.4392 13.1153 26.6623 11.7139L27.3126 9.05359V0.992737ZM27.3135 15.5942V22.9665C25.9121 22.6001 25.7081 21.7266 26.0337 20.5909L27.3135 15.5942ZM14.235 3.14513H9.34067C7.47219 3.3075 6.53795 7.42996 7.43225 8.48576L11.7987 12.3443C12.5697 13.0545 12.9969 13.928 12.6921 15.1262L11.2708 20.6708C11.0676 22.0922 10.2758 22.8432 8.89526 22.9656H0L0.588676 20.8931L6.59959 20.8523C7.45222 20.9339 8.22409 20.8723 8.48804 19.7974L9.72704 15.4309C9.70707 14.7198 9.60462 14.0096 8.97513 13.3193L4.5071 9.27761C3.49212 6.6989 5.62454 1.39821 8.18242 0.971898L14.235 0.951932V3.14513ZM14.2341 14.9239L12.0218 23.0672H14.2341V14.9239Z" fill="black"/>
</g>
</svg>
